<svg xmlns="http://www.w3.org/2000/svg" width="1200" height="820" viewBox="0 0 1200 820" fill="none">
  <defs>
    <linearGradient id="sky" x1="0" y1="0" x2="1200" y2="820" gradientUnits="userSpaceOnUse">
      <stop stop-color="#FFF9F2"/>
      <stop offset=".52" stop-color="#F7F1EA"/>
      <stop offset="1" stop-color="#ECE5F3"/>
    </linearGradient>
    <linearGradient id="hotel" x1="600" y1="166" x2="600" y2="690" gradientUnits="userSpaceOnUse">
      <stop stop-color="#FFFDF8"/>
      <stop offset="1" stop-color="#EDE4D8"/>
    </linearGradient>
    <linearGradient id="roof" x1="600" y1="92" x2="600" y2="238" gradientUnits="userSpaceOnUse">
      <stop stop-color="#A85D70"/>
      <stop offset="1" stop-color="#76465C"/>
    </linearGradient>
    <linearGradient id="windowBlue" x1="0" y1="0" x2="1" y2="1">
      <stop stop-color="#E9F8FF"/>
      <stop offset=".55" stop-color="#B7DFF0"/>
      <stop offset="1" stop-color="#FFF0B8"/>
    </linearGradient>
    <filter id="shadow" x="110" y="70" width="980" height="690" filterUnits="userSpaceOnUse" color-interpolation-filters="sRGB">
      <feDropShadow dx="0" dy="26" stdDeviation="34" flood-color="#4A382E" flood-opacity=".16"/>
    </filter>
    <filter id="soft" x="-80" y="-80" width="1360" height="980" filterUnits="userSpaceOnUse">
      <feGaussianBlur stdDeviation="30"/>
    </filter>
  </defs>
  <rect width="1200" height="820" rx="54" fill="url(#sky)"/>
  <g filter="url(#soft)" opacity=".75">
    <circle cx="176" cy="152" r="92" fill="#F4C6D2"/>
    <circle cx="980" cy="164" r="106" fill="#CDECE8"/>
    <circle cx="950" cy="646" r="120" fill="#F4E4A7"/>
  </g>
  <path d="M118 700c120-82 266-90 402-32 136 58 292 56 438-36 38-24 84-18 116 14" stroke="#D8CDBF" stroke-width="18" stroke-linecap="round" opacity=".52"/>
  <g filter="url(#shadow)">
    <path d="M244 684V268c0-36 29-65 65-65h582c36 0 65 29 65 65v416H244Z" fill="url(#hotel)" stroke="#D8CDBF" stroke-width="8"/>
    <path d="M314 202 600 74l286 128" fill="url(#roof)"/>
    <path d="M314 202 600 74l286 128" stroke="#76465C" stroke-width="18" stroke-linecap="round" stroke-linejoin="round"/>
    <path d="M600 82v100" stroke="#F3D8DF" stroke-width="10" stroke-linecap="round"/>
    <rect x="344" y="292" width="108" height="90" rx="22" fill="url(#windowBlue)" stroke="#FFFDF8" stroke-width="12"/>
    <rect x="546" y="292" width="108" height="90" rx="22" fill="#E5DAF4" stroke="#FFFDF8" stroke-width="12"/>
    <rect x="748" y="292" width="108" height="90" rx="22" fill="#D9EEE3" stroke="#FFFDF8" stroke-width="12"/>
    <rect x="344" y="460" width="108" height="90" rx="22" fill="#FFE3C7" stroke="#FFFDF8" stroke-width="12"/>
    <rect x="748" y="460" width="108" height="90" rx="22" fill="#F8D7DF" stroke="#FFFDF8" stroke-width="12"/>
    <path d="M532 684V526c0-38 30-68 68-68s68 30 68 68v158H532Z" fill="#7B5068"/>
    <circle cx="646" cy="584" r="8" fill="#F8E8B8"/>
    <rect x="286" y="646" width="628" height="38" rx="19" fill="#D6C8BA"/>
  </g>
  <g opacity=".88">
    <path d="M182 618c48-52 108-52 156 0M208 630c0-40 32-72 72-72s72 32 72 72" stroke="#2F685D" stroke-width="12" stroke-linecap="round"/>
    <path d="M870 628c44-48 100-48 144 0M896 638c0-36 29-65 65-65s65 29 65 65" stroke="#2F685D" stroke-width="12" stroke-linecap="round"/>
    <path d="M234 650v46M962 652v44" stroke="#2F685D" stroke-width="12" stroke-linecap="round"/>
  </g>
  <g opacity=".66">
    <circle cx="1042" cy="284" r="8" fill="#C88A46"/>
    <circle cx="1082" cy="336" r="5" fill="#8A4B59"/>
    <circle cx="154" cy="300" r="6" fill="#2F685D"/>
    <path d="M114 386c34-18 70-18 104 0" stroke="#C88A46" stroke-width="8" stroke-linecap="round"/>
  </g>
</svg>
