<svg xmlns="http://www.w3.org/2000/svg" width="960" height="620" viewBox="0 0 960 620" fill="none">
  <defs>
    <linearGradient id="wash" x1="0" y1="0" x2="960" y2="620" gradientUnits="userSpaceOnUse">
      <stop stop-color="#FFFDF8"/>
      <stop offset="1" stop-color="#EFE9F5"/>
    </linearGradient>
    <linearGradient id="desk" x1="520" y1="338" x2="842" y2="524" gradientUnits="userSpaceOnUse">
      <stop stop-color="#9C6372"/>
      <stop offset="1" stop-color="#6E4D70"/>
    </linearGradient>
    <filter id="shadow" x="210" y="64" width="650" height="506" filterUnits="userSpaceOnUse">
      <feDropShadow dx="0" dy="20" stdDeviation="28" flood-color="#4A382E" flood-opacity=".13"/>
    </filter>
  </defs>
  <rect width="960" height="620" fill="transparent"/>
  <circle cx="120" cy="472" r="108" fill="#D2F1ED" opacity=".42"/>
  <circle cx="810" cy="116" r="86" fill="#F8D7DF" opacity=".54"/>
  <circle cx="792" cy="444" r="112" fill="#FBF1BD" opacity=".38"/>
  <g filter="url(#shadow)">
    <rect x="294" y="132" width="404" height="338" rx="34" fill="url(#wash)" stroke="#D8CDBF" stroke-width="6"/>
    <path d="M342 132c18-58 74-100 140-100h28c66 0 122 42 140 100" stroke="#8A4B59" stroke-width="14" stroke-linecap="round"/>
    <rect x="344" y="190" width="70" height="60" rx="16" fill="#D9EEF5" stroke="#FFFDF8" stroke-width="8"/>
    <rect x="462" y="190" width="70" height="60" rx="16" fill="#E8DEF8" stroke="#FFFDF8" stroke-width="8"/>
    <rect x="580" y="190" width="70" height="60" rx="16" fill="#DBEFD9" stroke="#FFFDF8" stroke-width="8"/>
    <rect x="344" y="296" width="70" height="60" rx="16" fill="#FFE0C5" stroke="#FFFDF8" stroke-width="8"/>
    <rect x="580" y="296" width="70" height="60" rx="16" fill="#F8D7DF" stroke="#FFFDF8" stroke-width="8"/>
    <path d="M448 470v-92c0-27 22-49 49-49s49 22 49 49v92" fill="#76506B"/>
  </g>
  <path d="M514 492h318c24 0 44-20 44-44v-52H558c-24 0-44 20-44 44v52Z" fill="url(#desk)" opacity=".92"/>
  <rect x="560" y="356" width="238" height="56" rx="18" fill="#FFFDF8" stroke="#D8CDBF" stroke-width="5"/>
  <path d="M120 260c36-34 90-34 126 0M146 302c24-20 62-20 86 0" stroke="#2F685D" stroke-width="9" stroke-linecap="round" opacity=".58"/>
  <path d="M132 354c22-12 48-12 70 0 22 12 48 12 70 0" stroke="#C88A46" stroke-width="9" stroke-linecap="round" opacity=".58"/>
  <circle cx="704" cy="384" r="8" fill="#C88A46"/>
</svg>
