<svg xmlns="http://www.w3.org/2000/svg" width="820" height="520" viewBox="0 0 820 520" fill="none">
  <defs>
    <linearGradient id="roomA" x1="136" y1="96" x2="308" y2="322" gradientUnits="userSpaceOnUse">
      <stop stop-color="#F8D7DF"/>
      <stop offset="1" stop-color="#E9B5C3"/>
    </linearGradient>
    <linearGradient id="roomB" x1="350" y1="150" x2="540" y2="384" gradientUnits="userSpaceOnUse">
      <stop stop-color="#D9EEF5"/>
      <stop offset="1" stop-color="#A9D6E4"/>
    </linearGradient>
    <filter id="shadow" x="74" y="54" width="548" height="390" filterUnits="userSpaceOnUse">
      <feDropShadow dx="0" dy="16" stdDeviation="18" flood-color="#4A382E" flood-opacity=".12"/>
    </filter>
  </defs>
  <rect width="820" height="520" fill="transparent"/>
  <circle cx="672" cy="120" r="74" fill="#E8DEF8" opacity=".46"/>
  <circle cx="650" cy="344" r="106" fill="#D2F1ED" opacity=".35"/>
  <g filter="url(#shadow)" opacity=".86">
    <rect x="118" y="112" width="190" height="180" rx="24" fill="url(#roomA)" stroke="#FFFDF8" stroke-width="8"/>
    <rect x="358" y="160" width="210" height="194" rx="26" fill="url(#roomB)" stroke="#FFFDF8" stroke-width="8"/>
    <rect x="156" y="146" width="54" height="44" rx="12" fill="#E9F8FF" stroke="#FFFDF8" stroke-width="6"/>
    <rect x="418" y="198" width="58" height="46" rx="12" fill="#FFF0B8" stroke="#FFFDF8" stroke-width="6"/>
    <path d="M230 270c14-26 50-26 64 0" stroke="#8A4B59" stroke-width="9" stroke-linecap="round"/>
    <path d="M494 334c20-24 58-24 78 0" stroke="#34738A" stroke-width="9" stroke-linecap="round"/>
  </g>
  <path d="M98 410c84-44 178-44 262 0 84 44 178 44 262 0" stroke="#D8CDBF" stroke-width="12" stroke-linecap="round" opacity=".52"/>
  <path d="M638 252c34-30 84-30 118 0M654 294c24-18 60-18 84 0" stroke="#2F685D" stroke-width="9" stroke-linecap="round" opacity=".52"/>
  <circle cx="696" cy="194" r="7" fill="#C88A46" opacity=".75"/>
</svg>
